<svg xmlns="http://www.w3.org/2000/svg" xmlns:xlink="http://www.w3.org/1999/xlink" width="500" zoomAndPan="magnify" viewBox="0 0 375 374.999991" height="500" preserveAspectRatio="xMidYMid meet" version="1.0"><defs><clipPath id="64173e27b7"><path d="M 87.636719 61.640625 L 234.636719 61.640625 L 234.636719 244.640625 L 87.636719 244.640625 Z M 87.636719 61.640625 " clip-rule="nonzero"/></clipPath><clipPath id="d57bd51f4e"><path d="M 204 304 L 237 304 L 237 313.359375 L 204 313.359375 Z M 204 304 " clip-rule="nonzero"/></clipPath><clipPath id="861d56ba27"><path d="M 174.109375 163.359375 L 267 163.359375 L 267 280 L 174.109375 280 Z M 174.109375 163.359375 " clip-rule="nonzero"/></clipPath></defs><path fill="#a6a6a6" d="M 200.011719 166.738281 L 122.359375 166.738281 C 120.167969 166.738281 118.390625 168.519531 118.390625 170.707031 C 118.390625 172.898438 120.167969 174.679688 122.359375 174.679688 L 200.011719 174.679688 C 202.203125 174.679688 203.980469 172.898438 203.980469 170.707031 C 203.980469 168.519531 202.203125 166.738281 200.011719 166.738281 Z M 200.011719 166.738281 " fill-opacity="1" fill-rule="nonzero"/><path fill="#a6a6a6" d="M 200.011719 131.765625 L 122.359375 131.765625 C 120.167969 131.765625 118.390625 133.546875 118.390625 135.734375 C 118.390625 137.925781 120.167969 139.707031 122.359375 139.707031 L 200.011719 139.707031 C 202.203125 139.707031 203.980469 137.925781 203.980469 135.734375 C 203.980469 133.546875 202.203125 131.765625 200.011719 131.765625 Z M 200.011719 131.765625 " fill-opacity="1" fill-rule="nonzero"/><path fill="#a6a6a6" d="M 122.359375 104.734375 L 166.753906 104.734375 C 168.945312 104.734375 170.722656 102.953125 170.722656 100.765625 C 170.722656 98.574219 168.945312 96.792969 166.753906 96.792969 L 122.359375 96.792969 C 120.167969 96.792969 118.390625 98.574219 118.390625 100.765625 C 118.390625 102.953125 120.167969 104.734375 122.359375 104.734375 Z M 122.359375 104.734375 " fill-opacity="1" fill-rule="nonzero"/><path fill="#a6a6a6" d="M 200.011719 201.710938 L 122.359375 201.710938 C 120.167969 201.710938 118.390625 203.492188 118.390625 205.679688 C 118.390625 207.871094 120.167969 209.652344 122.359375 209.652344 L 200.011719 209.652344 C 202.203125 209.652344 203.980469 207.871094 203.980469 205.679688 C 203.980469 203.492188 202.203125 201.710938 200.011719 201.710938 Z M 200.011719 201.710938 " fill-opacity="1" fill-rule="nonzero"/><g clip-path="url(#64173e27b7)"><path fill="#a6a6a6" d="M 233.574219 103.425781 L 193.136719 62.984375 C 192.394531 62.238281 191.386719 61.820312 190.335938 61.820312 L 91.609375 61.671875 L 91.601562 61.671875 C 90.550781 61.671875 89.542969 62.089844 88.796875 62.828125 C 88.050781 63.574219 87.632812 64.589844 87.632812 65.640625 L 87.632812 240.652344 C 87.632812 242.84375 89.414062 244.625 91.601562 244.625 L 230.765625 244.625 C 232.957031 244.625 234.734375 242.84375 234.734375 240.652344 L 234.734375 106.230469 C 234.734375 105.179688 234.320312 104.167969 233.574219 103.425781 Z M 193.339844 74.417969 L 222.136719 103.214844 L 196.800781 103.214844 C 194.890625 103.214844 193.339844 101.664062 193.339844 99.753906 Z M 95.574219 236.683594 L 95.574219 69.617188 L 185.402344 69.757812 L 185.402344 99.753906 C 185.402344 106.042969 190.515625 111.15625 196.800781 111.15625 L 226.796875 111.15625 L 226.796875 236.683594 Z M 95.574219 236.683594 " fill-opacity="1" fill-rule="nonzero"/></g><g clip-path="url(#d57bd51f4e)"><path fill="#a6a6a6" d="M 204.894531 304.082031 C 207.914062 309.605469 213.777344 313.359375 220.515625 313.359375 C 227.257812 313.359375 233.117188 309.605469 236.136719 304.082031 Z M 204.894531 304.082031 " fill-opacity="1" fill-rule="nonzero"/></g><g clip-path="url(#861d56ba27)"><path fill="#a6a6a6" d="M 237.527344 279.339844 C 240.621094 279.339844 243.710938 276.246094 243.710938 273.152344 C 243.710938 246.863281 266.90625 243.292969 266.90625 209.75 C 266.90625 184.128906 246.136719 163.359375 220.515625 163.359375 C 194.894531 163.359375 174.125 184.128906 174.125 209.75 C 174.125 243.292969 197.320312 246.863281 197.320312 273.152344 C 197.320312 276.246094 200.414062 279.339844 203.507812 279.339844 Z M 237.527344 279.339844 " fill-opacity="1" fill-rule="nonzero"/></g><path fill="#a6a6a6" d="M 240.621094 291.710938 C 240.621094 294.261719 238.53125 296.347656 235.980469 296.347656 L 205.050781 296.347656 C 202.5 296.347656 200.414062 294.261719 200.414062 291.710938 C 200.414062 289.15625 202.5 287.070312 205.050781 287.070312 L 235.980469 287.070312 C 238.53125 287.070312 240.621094 289.15625 240.621094 291.710938 Z M 240.621094 291.710938 " fill-opacity="1" fill-rule="nonzero"/></svg>